<svg xmlns="http://www.w3.org/2000/svg" style="display:none" aria-hidden="true"><symbol id="user" viewBox="0 0 19 21"><path fill="currentColor" d="M9.5 8.5c1.657 0 3-1.12 3-2.5s-1.343-2.5-3-2.5-3 1.12-3 2.5 1.343 2.5 3 2.5m.016 1.028c-3.875-.015-7.027 2.78-7.041 6.243-.004.924.83 1.676 1.864 1.68l10.29.041c1.033.005 1.874-.74 1.878-1.664.014-3.464-3.116-6.284-6.991-6.3"></path></symbol><symbol id="unfold" viewBox="0 0 25 24"><g stroke="currentColor" stroke-linecap="round" stroke-linejoin="round" stroke-width="2" clip-path="url(#a)"><path d="M4.075 11.856h18.148m0 0-3 3m3-3-3-3M4.076 18h9.858M4.076 5.856h9.858"></path></g><defs><clipPath id="a"><path fill="currentColor" d="M.223 0v24h24V0z"></path></clipPath></defs></symbol><symbol id="tooltip" viewBox="0 0 28 28"><path fill="currentColor" d="M14 2.625A11.375 11.375 0 1 0 25.375 14 11.387 11.387 0 0 0 14 2.625m0 21A9.625 9.625 0 1 1 23.625 14 9.636 9.636 0 0 1 14 23.625m1.75-4.375a.875.875 0 0 1-.875.875 1.75 1.75 0 0 1-1.75-1.75V14a.875.875 0 1 1 0-1.75 1.75 1.75 0 0 1 1.75 1.75v4.375a.875.875 0 0 1 .875.875m-3.5-10.062a1.313 1.313 0 1 1 2.625 0 1.313 1.313 0 0 1-2.625 0"></path></symbol><symbol id="title" viewBox="0 0 198 32"><path fill="currentColor" d="M8.394 7.28h-5.64C1.434 7.28.274 6 .274 4c0-1.72 1-3.44 2.48-3.44h18.04c1.52 0 2.48 1.28 2.48 3.4 0 1.76-.96 3.32-2.52 3.32h-5.48c.08 6.52.08 15.6 0 20.92 0 1.76-1.52 2.92-3.56 2.84-2-.08-3.36-1.24-3.36-2.92.04-5.36.16-14.56.04-20.84M33.505.56c1.84 0 3.2 1.44 3.52 2 2.24 3.96 7.24 17.64 9.2 24.24.44 1.8-.6 3.64-2.28 4.08-2.44.64-3.92-.76-4.4-2.28-1.44-4.68-5.16-16.88-6-18.56-.4.84-1.52 4.24-2.68 8.04h2.88c1.48 0 2.28 1.76 2.28 3.4 0 1.4-.52 3.32-2.32 3.32h-4.96c-.44 1.48-.88 2.84-1.16 3.8-.44 1.52-1.88 2.92-4.2 2.32-2.16-.52-2.92-2.28-2.44-4.12 1.96-6.6 6.92-20.28 9.24-24.24.28-.56 1.6-2 3.32-2m23.49 2.88c-.2 2.28-.6 14.24-.36 19.16 0 .72.4 1.24 1.08 1.36.96.2 2.16.28 3.44.28 2.32 0 4.24-.28 5.72-.84 1.56-.6 3.76.08 4.2 2.36.4 1.68-.28 3.16-1.52 3.84-2.32 1.24-5.92 1.44-8.52 1.44-2.8 0-5.68-.44-7.76-1.28-1.16-.48-2.76-1.6-3.12-3.52-.64-3.32-.36-20.6.04-23.56.24-1.56 2.16-2.4 3.96-2.08 2.12.32 2.92 1.84 2.84 2.84M92.48 6.2l-12.4 13.28c.08 3.28.2 6.32.4 8.52.12 1.72-1.44 2.92-3.16 3.04-1.96.12-3.6-.76-3.76-2.4-.44-4.44-.84-18.92.04-25.88.2-1.48 2.16-2.4 3.8-2.2s3.28 1.32 3.08 3.16c-.16 1.6-.28 3.76-.36 6.2l7.52-8.48c1-1.16 3.28-1.08 4.44.08 1.52 1.52 1.4 3.6.4 4.68M88.6 18.4l5.68 7.44c1.04 1.36.4 3.52-.88 4.52-1.48 1.16-3.44 1-4.36-.2l-5.92-7.8c-.96-1.28-.36-3.32 1-4.28 1.32-.96 3.48-1.12 4.48.32m13.897-11.12h-5.64c-1.32 0-2.48-1.28-2.48-3.28 0-1.72 1-3.44 2.48-3.44h18.04c1.52 0 2.48 1.28 2.48 3.4 0 1.76-.96 3.32-2.52 3.32h-5.48c.08 6.52.08 15.6 0 20.92 0 1.76-1.52 2.92-3.56 2.84-2-.08-3.36-1.24-3.36-2.92.04-5.36.16-14.56.04-20.84m40.452 8.6c0 8.44-4.28 15.56-12.92 15.56-8.48 0-12.84-7.32-12.84-15.6S121.108.2 130.028.2c9.04 0 12.92 7.92 12.92 15.68m-6.92.04c0-5.88-2-8.96-6.08-8.96-3.84.04-5.88 2.92-5.88 8.96 0 5.6 2 8.72 5.92 8.72 4.04 0 6.04-3.12 6.04-8.72m20.731-8.68h-2.52c-1.04 0-1.08.88-1.08 1.16-.28 5.28-.32 10.36-.2 14.84.04.32.04 1.12 1 1.12h2.8c3.84 0 6.2-2.84 6.2-8.48 0-5.92-2.12-8.64-6.2-8.64m-6.8-6.68h6.88c9.44 0 12.88 7.6 12.88 15.36 0 8.44-4.76 15.12-12.88 15.12h-7.32c-1.68 0-3.16-.92-3.24-2.72-.2-3.56-.24-21.48.28-24.8.32-1.96 2.4-2.96 3.4-2.96m47.716 15.32c0 8.44-4.28 15.56-12.92 15.56-8.48 0-12.84-7.32-12.84-15.6S175.835.2 184.755.2c9.04 0 12.92 7.92 12.92 15.68m-6.92.04c0-5.88-2-8.96-6.08-8.96-3.84.04-5.88 2.92-5.88 8.96 0 5.6 2 8.72 5.92 8.72 4.04 0 6.04-3.12 6.04-8.72"></path></symbol><symbol id="timeline" viewBox="0 0 24 24"><path fill="currentColor" d="M17 3.34a10 10 0 1 1-14.995 8.984L2 12l.005-.324A10 10 0 0 1 17 3.34M12 6a1 1 0 0 0-.993.883L11 7v5l.009.13a1 1 0 0 0 .197.478l.087.1 3 3 .094.082a1 1 0 0 0 1.226 0l.094-.083.083-.094a1 1 0 0 0 0-1.226l-.083-.094L13 11.585V7l-.007-.117A1 1 0 0 0 12 6"></path></symbol><symbol id="send" viewBox="0 0 25 24"><g clip-path="url(#a)"><path fill="currentColor" d="M21.916 4.157v.014L16.46 22.165a1.49 1.49 0 0 1-1.442 1.085 1.49 1.49 0 0 1-1.352-.858l-3.412-7.003a.38.38 0 0 1 .072-.43l5.43-5.43a.75.75 0 0 0-1.06-1.06L9.263 13.9a.38.38 0 0 1-.43.073l-7.01-3.412a1.5 1.5 0 0 1 .234-2.794L20.052 2.31h.014a1.5 1.5 0 0 1 1.85 1.847"></path></g><defs><clipPath id="a"><path fill="currentColor" d="M.223 0h24v24h-24z"></path></clipPath></defs></symbol><symbol id="profile" viewBox="0 0 40 40"><g clip-path="url(#a)"><rect width="40" height="40" fill="#d5d3da" rx="20"></rect><path fill="#bbb8c3" d="M7.43 29.179 27.36 9.25l19.395 19.396-19.929 19.928z"></path><path fill="#fff" d="M21.552 7.586c6.212 0 11.248 5.037 11.248 11.249s-5.036 11.248-11.248 11.248h-9.738a1 1 0 0 1-.19-.021 9 9 0 0 1-.563.021 8.5 8.5 0 0 1-3.244-.645c-.938-.39-.707-1.677.164-2.2a8.27 8.27 0 0 0 2.994-3.11V11.225a3.64 3.64 0 0 1 3.637-3.638z"></path><path fill="#8f8b99" d="M20.215 15.98a1.175 1.175 0 0 1 2.35 0v1.008a1.175 1.175 0 1 1-2.35 0zm4.869 0a1.175 1.175 0 1 1 2.35 0v1.008a1.175 1.175 0 1 1-2.35 0z"></path></g><defs><clipPath id="a"><rect width="40" height="40" fill="#fff" rx="20"></rect></clipPath></defs></symbol><symbol id="plus" viewBox="0 0 32 32"><path stroke="currentColor" stroke-linecap="round" stroke-linejoin="round" stroke-width="3" d="M15.997 6.666v18.667m-9.333-9.334h18.667"></path></symbol><symbol id="naver" viewBox="0 0 24 24"><g clip-path="url(#a)"><path fill="#fff" d="M15.47 12.25 8.997 2.91H3.634v17.454h5.619V11.02l6.472 9.343h5.363V2.909H15.47z"></path></g><defs><clipPath id="a"><path fill="#fff" d="M3.634 2.91h17.454v17.453H3.634z"></path></clipPath></defs></symbol><symbol id="mic" viewBox="0 0 24 24"><path fill="currentColor" d="M7.5 12V6a4.5 4.5 0 0 1 9 0v6a4.5 4.5 0 1 1-9 0m12 0a.75.75 0 1 0-1.5 0 6 6 0 1 1-12 0 .75.75 0 1 0-1.5 0 7.51 7.51 0 0 0 6.75 7.462V22.5a.75.75 0 1 0 1.5 0v-3.038A7.51 7.51 0 0 0 19.5 12"></path></symbol><symbol id="memo" viewBox="0 0 24 24"><g stroke="currentColor" stroke-linecap="round" stroke-linejoin="round" stroke-width="2" clip-path="url(#a)"><path d="M9 4v18M6 4h11a2 2 0 0 1 2 2v12a2 2 0 0 1-2 2H6a1 1 0 0 1-1-1V5a1 1 0 0 1 1-1m7 4h2m-2 4h2"></path></g><defs><clipPath id="a"><path fill="currentColor" d="M0 0h24v24H0z"></path></clipPath></defs></symbol><symbol id="logo" viewBox="0 0 40 40"><rect width="40" height="40" fill="#8f3fff" rx="12"></rect><path fill="#fff" d="M21.515 9c6.287 0 11.384 5.097 11.384 11.385S27.802 31.769 21.515 31.77h-9.856a1 1 0 0 1-.191-.024q-.285.021-.572.023a8.6 8.6 0 0 1-3.285-.654c-.95-.393-.714-1.697.167-2.225a8.37 8.37 0 0 0 3.032-3.15V12.681A3.68 3.68 0 0 1 14.49 9z"></path><g filter="url(#a)"><path fill="#8f3fff" d="M20.293 17a1 1 0 1 1 2 0v2a1 1 0 1 1-2 0z"></path></g><g filter="url(#b)"><path fill="#8f3fff" d="M25.293 17a1 1 0 1 1 2 0v2a1 1 0 1 1-2 0z"></path></g><defs><filter id="a" width="3.923" height="5.923" x="19.331" y="15.039" color-interpolation-filters="sRGB" filterUnits="userSpaceOnUse"><feFlood flood-opacity="0" result="BackgroundImageFix"></feFlood><feColorMatrix in="SourceAlpha" result="hardAlpha" values="0 0 0 0 0 0 0 0 0 0 0 0 0 0 0 0 0 0 127 0"></feColorMatrix><feOffset dx="-.385" dy="-.385"></feOffset><feGaussianBlur stdDeviation=".288"></feGaussianBlur><feComposite in2="hardAlpha" operator="out"></feComposite><feColorMatrix values="0 0 0 0 0.0392157 0 0 0 0 0.0431373 0 0 0 0 0.121569 0 0 0 0.2 0"></feColorMatrix><feBlend in2="BackgroundImageFix" result="effect1_dropShadow_3140_1704"></feBlend><feColorMatrix in="SourceAlpha" result="hardAlpha" values="0 0 0 0 0 0 0 0 0 0 0 0 0 0 0 0 0 0 127 0"></feColorMatrix><feOffset dx=".385" dy=".385"></feOffset><feGaussianBlur stdDeviation=".288"></feGaussianBlur><feComposite in2="hardAlpha" operator="out"></feComposite><feColorMatrix values="0 0 0 0 1 0 0 0 0 1 0 0 0 0 1 0 0 0 0.2 0"></feColorMatrix><feBlend in2="effect1_dropShadow_3140_1704" result="effect2_dropShadow_3140_1704"></feBlend><feBlend in="SourceGraphic" in2="effect2_dropShadow_3140_1704" result="shape"></feBlend></filter><filter id="b" width="3.923" height="5.923" x="24.331" y="15.039" color-interpolation-filters="sRGB" filterUnits="userSpaceOnUse"><feFlood flood-opacity="0" result="BackgroundImageFix"></feFlood><feColorMatrix in="SourceAlpha" result="hardAlpha" values="0 0 0 0 0 0 0 0 0 0 0 0 0 0 0 0 0 0 127 0"></feColorMatrix><feOffset dx="-.385" dy="-.385"></feOffset><feGaussianBlur stdDeviation=".288"></feGaussianBlur><feComposite in2="hardAlpha" operator="out"></feComposite><feColorMatrix values="0 0 0 0 0.0392157 0 0 0 0 0.0431373 0 0 0 0 0.121569 0 0 0 0.2 0"></feColorMatrix><feBlend in2="BackgroundImageFix" result="effect1_dropShadow_3140_1704"></feBlend><feColorMatrix in="SourceAlpha" result="hardAlpha" values="0 0 0 0 0 0 0 0 0 0 0 0 0 0 0 0 0 0 127 0"></feColorMatrix><feOffset dx=".385" dy=".385"></feOffset><feGaussianBlur stdDeviation=".288"></feGaussianBlur><feComposite in2="hardAlpha" operator="out"></feComposite><feColorMatrix values="0 0 0 0 1 0 0 0 0 1 0 0 0 0 1 0 0 0 0.2 0"></feColorMatrix><feBlend in2="effect1_dropShadow_3140_1704" result="effect2_dropShadow_3140_1704"></feBlend><feBlend in="SourceGraphic" in2="effect2_dropShadow_3140_1704" result="shape"></feBlend></filter></defs></symbol><symbol id="layout2" viewBox="0 0 25 24"><g fill="currentColor" clip-path="url(#a)"><path d="M18.223 3a3 3 0 0 1 3 3v2a3 3 0 0 1-3 3h-12a3 3 0 0 1-3-3V6a3 3 0 0 1 3-3zm0 10a3 3 0 0 1 3 3v2a3 3 0 0 1-3 3h-12a3 3 0 0 1-3-3v-2a3 3 0 0 1 3-3z"></path></g><defs><clipPath id="a"><path fill="currentColor" d="M.223 0h24v24h-24z"></path></clipPath></defs></symbol><symbol id="layout1" viewBox="0 0 24 24"><g fill="currentColor" clip-path="url(#a)"><path d="M9 3a2 2 0 0 1 2 2v4a2 2 0 0 1-2 2H5a2 2 0 0 1-2-2V5a2 2 0 0 1 2-2zm10 0a2 2 0 0 1 2 2v4a2 2 0 0 1-2 2h-4a2 2 0 0 1-2-2V5a2 2 0 0 1 2-2zM9 13a2 2 0 0 1 2 2v4a2 2 0 0 1-2 2H5a2 2 0 0 1-2-2v-4a2 2 0 0 1 2-2zm10 0a2 2 0 0 1 2 2v4a2 2 0 0 1-2 2h-4a2 2 0 0 1-2-2v-4a2 2 0 0 1 2-2z"></path></g><defs><clipPath id="a"><path fill="currentColor" d="M0 0h24v24H0z"></path></clipPath></defs></symbol><symbol id="kebab" viewBox="0 0 16 16"><circle cx="8" cy="5" r="1" fill="currentColor"></circle><circle cx="8" cy="8" r="1" fill="currentColor"></circle><circle cx="8" cy="11" r="1" fill="currentColor"></circle></symbol><symbol id="kakao" viewBox="0 0 25 24"><path fill="#29252b" d="M11.837 3c-5.31 0-9.614 3.485-9.614 7.783 0 2.742 1.756 5.148 4.403 6.535L5.61 20.704a.229.229 0 0 0 .346.257l3.856-2.571c.653.113 1.33.176 2.025.176 5.31 0 9.615-3.484 9.615-7.783C21.452 6.485 17.147 3 11.837 3"></path></symbol><symbol id="image" viewBox="0 0 20 20"><rect width="12.5" height="12.5" x="1.75" y="5.75" stroke="#29252b" stroke-width="1.5" rx="2.25"></rect><rect width="12.5" height="12.5" x="4.75" y="2.75" fill="#fff" stroke="#29252b" stroke-width="1.5" rx="2.25"></rect><path fill="#29252b" d="M12.911 8.154a1.5 1.5 0 0 1 2.18 0L18 11.233a4.02 4.02 0 0 1-4.018 4.017H6.207z"></path><circle cx="8.5" cy="6.5" r="1.5" fill="#29252b"></circle></symbol><symbol id="home" viewBox="0 0 28 29"><path fill="currentColor" fill-rule="evenodd" d="M11.522 6.813a3.5 3.5 0 0 1 4.14 0L19.88 9.93a3.15 3.15 0 0 1 1.302 2.533v5.641a3.293 3.293 0 0 1-3.196 3.197H9.203A3.293 3.293 0 0 1 6 18.104v-5.641A3.15 3.15 0 0 1 7.303 9.93zm2.822 11.132h2.616v-2.194h-2.616zm-4.132 0h2.614v-2.194h-2.613l-.001-.001zm4.132-3.712h2.616V12.04h-2.616zm-4.132 0h2.614V12.04h-2.614z" clip-rule="evenodd"></path></symbol><symbol id="hamburger" viewBox="0 0 24 24"><rect width="18" height="2" x="3" y="6" fill="currentColor" rx="1"></rect><rect width="18" height="2" x="3" y="11" fill="currentColor" rx="1"></rect><rect width="18" height="2" x="3" y="16" fill="currentColor" rx="1"></rect></symbol><symbol id="google" viewBox="0 0 24 24"><path fill="#4280ef" d="M20.643 12.215c0-.608-.06-1.235-.157-1.823h-8.49v3.47h4.862a4.1 4.1 0 0 1-1.803 2.725l2.901 2.255c1.706-1.588 2.687-3.901 2.687-6.627"></path><path fill="#34a353" d="M11.996 21c2.431 0 4.47-.804 5.96-2.177l-2.902-2.235c-.803.55-1.843.863-3.058.863-2.353 0-4.333-1.588-5.059-3.706l-2.98 2.294A8.99 8.99 0 0 0 11.996 21"></path><path fill="#f6b704" d="M6.936 13.726a5.47 5.47 0 0 1 0-3.45l-2.98-2.314a9.01 9.01 0 0 0 0 8.078z"></path><path fill="#e54335" d="M11.996 6.569a4.9 4.9 0 0 1 3.45 1.353l2.569-2.588A8.66 8.66 0 0 0 11.995 3a8.99 8.99 0 0 0-8.038 4.961l2.98 2.314c.726-2.138 2.706-3.706 5.059-3.706"></path></symbol><symbol id="goal" viewBox="0 0 44 20"><path fill="currentColor" d="M13.776 6.942h-.594a1.08 1.08 0 0 1-1.137-1.012v-.053a1.08 1.08 0 0 0-1.143-1.012H6.813v-.21a.49.49 0 0 0-.98 0V15.76a.49.49 0 0 0 .98 0v-5.408h.764a1.08 1.08 0 0 1 1.137 1.013v.039a1.08 1.08 0 0 0 1.136 1.012h3.92a1.08 1.08 0 0 0 1.136-1.012V7.941a1.084 1.084 0 0 0-1.13-1m16.505-3.132v4.375h-3.377v1.189h4.813v1.408H20.369V9.373h4.785v-1.19h-3.377V3.81zm-6.795 1.353v1.654h5.086V5.162zm6.85 6.535v4.06H28.6v-2.692h-6.973v-1.368zm13.241 1.285v1.395H32.19v-1.395h2.83v-2.365h-1.887V9.21H34.8v-3.5h-1.723V4.314h9.543V5.71h-1.75v3.5h1.696v1.408h-1.873v2.365zM36.55 9.21h2.598v-3.5H36.55zm.219 3.773h2.174v-2.365h-2.174z"></path></symbol><symbol id="fold" viewBox="0 0 24 24"><g stroke="currentColor" stroke-linecap="round" stroke-linejoin="round" stroke-width="2.333" clip-path="url(#a)"><path d="M20.573 12H2.426m0 0 3-3m-3 3 3 3m15.146-9.144h-9.857M20.572 18h-9.857"></path></g><defs><clipPath id="a"><path fill="currentColor" d="M0 0v24h24V0z"></path></clipPath></defs></symbol><symbol id="flag" viewBox="0 0 28 28"><path fill="currentColor" d="M19.286 9.72h-.832a1.51 1.51 0 0 1-1.59-1.418V8.23a1.51 1.51 0 0 0-1.601-1.417H9.539V6.52a.686.686 0 1 0-1.372 0v15.545a.686.686 0 0 0 1.372 0v-7.571h1.07a1.51 1.51 0 0 1 1.59 1.417v.055a1.51 1.51 0 0 0 1.592 1.417h5.486a1.51 1.51 0 0 0 1.591-1.417V11.12a1.52 1.52 0 0 0-1.582-1.4"></path></symbol><symbol id="delete" viewBox="0 0 24 25"><g fill="currentColor" clip-path="url(#a)"><path d="M20 6.321a1 1 0 0 1 .117 1.993L20 8.321h-.081l-.92 11a3 3 0 0 1-2.823 2.995l-.176.005H8c-1.598 0-2.904-1.249-2.992-2.75l-.005-.167L4.08 8.321H4a1 1 0 0 1-.117-1.993L4 6.321zm-9.49 5.14a1 1 0 0 0-1.217 1.567l1.292 1.293-1.292 1.293-.083.094a1 1 0 0 0 1.497 1.32L12 15.736l1.293 1.292.094.083a1 1 0 0 0 1.32-1.497l-1.292-1.293 1.292-1.293.083-.094a1 1 0 0 0-1.497-1.32L12 12.906l-1.293-1.292-.094-.083zM14 2.321a2 2 0 0 1 2 2 1 1 0 0 1-1.993.117L14 4.321h-4l-.007.117A1 1 0 0 1 8 4.321a2 2 0 0 1 1.85-1.995l.15-.005z"></path></g><defs><clipPath id="a"><path fill="currentColor" d="M0 .321h24v24H0z"></path></clipPath></defs></symbol><symbol id="close" viewBox="0 0 25 24"><path stroke="currentColor" stroke-linecap="round" stroke-linejoin="round" stroke-width="2.5" d="m18.223 6-12 12m0-12 12 12"></path></symbol><symbol id="chevron-up" viewBox="0 0 25 25"><path stroke="currentColor" stroke-linecap="round" stroke-linejoin="round" stroke-width="2.5" d="m18.223 15.136-6-6-6 6"></path></symbol><symbol id="chevron-right" viewBox="0 0 25 24"><path stroke="currentColor" stroke-linecap="round" stroke-linejoin="round" stroke-width="2.5" d="m9.444 18 6-6-6-6"></path></symbol><symbol id="chevron-left" viewBox="0 0 25 24"><path stroke="currentColor" stroke-linecap="round" stroke-linejoin="round" stroke-width="2.5" d="m15.223 18-6-6 6-6"></path></symbol><symbol id="chevron-down" viewBox="0 0 25 25"><path stroke="currentColor" stroke-linecap="round" stroke-linejoin="round" stroke-width="2.5" d="m6.444 9.136 6 6 6-6"></path></symbol><symbol id="calendar" viewBox="0 0 25 24"><g fill="currentColor" clip-path="url(#a)"><path d="M16.223 2c.183 0 .355.05.502.135l.033.02c.28.177.465.49.465.845v1h1a3 3 0 0 1 2.995 2.824l.005.176v12a3 3 0 0 1-2.824 2.995l-.176.005h-12a3 3 0 0 1-2.995-2.824L3.223 19V7a3 3 0 0 1 2.824-2.995L6.223 4h1V3a1 1 0 0 1 .514-.874l.093-.046.066-.025.1-.029.107-.019.12-.007q.083 0 .16.013l.123.029.04.012.06.023c.328.135.568.44.61.806L9.223 3v1h6V3a1 1 0 0 1 1-1m3 7h-14v9.625c0 .705.386 1.286.883 1.366l.117.009h12c.513 0 .936-.53.993-1.215l.007-.16z"></path><path d="M9.24 13a1 1 0 0 1-1 1 1 1 0 1 1-.005-2c.557 0 1.005.448 1.005 1m4 0a1 1 0 0 1-1 1 1.001 1.001 0 1 1-.005-2c.557 0 1.005.448 1.005 1m4.004 0a1 1 0 0 1-1 1 1 1 0 1 1-.006-2c.558 0 1.006.448 1.006 1m-5 2a1 1 0 0 1 0 2 1 1 0 1 1-.005-2zM9.24 16a1 1 0 0 1-1 1 1 1 0 1 1-.005-2c.557 0 1.005.448 1.005 1"></path></g><defs><clipPath id="a"><path fill="currentColor" d="M.223 0h24v24h-24z"></path></clipPath></defs></symbol><symbol id="all" viewBox="0 0 28 28"><path fill="currentColor" d="M19.373 6.953c.476.186.888.53 1.18.987.29.456.447 1.001.447 1.56v10.8c0 .716-.257 1.403-.714 1.91a2.32 2.32 0 0 1-1.724.79h-8.125a2.32 2.32 0 0 1-1.723-.79A2.86 2.86 0 0 1 8 20.3V9.5c0-.559.156-1.104.448-1.56a2.48 2.48 0 0 1 1.18-.987c.035.928.393 1.804.998 2.446s1.41 1.001 2.249 1.001h3.25c.805 0 1.582-.331 2.18-.93.597-.597.973-1.42 1.054-2.307zM12.07 16.7h-.008a.77.77 0 0 0-.557.246.94.94 0 0 0-.254.601.96.96 0 0 0 .188.63.8.8 0 0 0 .527.317l.104.006a.77.77 0 0 0 .574-.264.95.95 0 0 0 .238-.636.95.95 0 0 0-.238-.636.77.77 0 0 0-.574-.264m4.867 0h-1.625a.77.77 0 0 0-.575.264.95.95 0 0 0-.238.636.95.95 0 0 0 .238.636.77.77 0 0 0 .575.264h1.624a.77.77 0 0 0 .575-.264.95.95 0 0 0 .238-.636.95.95 0 0 0-.238-.636.77.77 0 0 0-.575-.264m-4.867-3.6h-.008a.77.77 0 0 0-.557.246.94.94 0 0 0-.254.601.96.96 0 0 0 .188.63.8.8 0 0 0 .527.317l.104.006a.77.77 0 0 0 .574-.264.95.95 0 0 0 .238-.636.95.95 0 0 0-.238-.636.77.77 0 0 0-.574-.264m4.867 0h-1.625a.77.77 0 0 0-.575.264.95.95 0 0 0-.238.636.95.95 0 0 0 .238.636.77.77 0 0 0 .575.264h1.624a.77.77 0 0 0 .575-.264.95.95 0 0 0 .238-.636.95.95 0 0 0-.238-.636.77.77 0 0 0-.575-.264m-.81-8.1c.431 0 .844.19 1.149.527.305.338.476.796.476 1.273s-.171.935-.476 1.273a1.55 1.55 0 0 1-1.149.527h-3.25c-.431 0-.844-.19-1.149-.527A1.9 1.9 0 0 1 11.25 6.8c0-.477.171-.935.476-1.273A1.55 1.55 0 0 1 12.875 5z"></path></symbol><symbol id="alert" viewBox="0 0 24 24"><path stroke="#8f3fff" stroke-linecap="round" stroke-linejoin="round" stroke-width="2" d="M12 22c5.523 0 10-4.477 10-10S17.523 2 12 2 2 6.477 2 12s4.477 10 10 10m0-14v4m0 4h.01"></path></symbol><symbol id="active" viewBox="0 0 28 28"><rect width="26" height="26" x="1" y="1" stroke="currentColor" stroke-width="2" rx="13"></rect><g clip-path="url(#a)"><path stroke="currentColor" stroke-linecap="round" stroke-linejoin="round" stroke-width="2.5" d="m8.897 14 3.646 3.645 7.291-7.291"></path></g><defs><clipPath id="a"><path fill="currentColor" d="M5.25 5.25h17.5v17.5H5.25z"></path></clipPath></defs></symbol></svg>