<svg width="28" height="28" viewBox="0 0 28 28" fill="none" xmlns="http://www.w3.org/2000/svg">
<path d="M19.3726 6.953C19.8485 7.13875 20.2606 7.4835 20.5521 7.93971C20.8436 8.39592 21.0001 8.94109 21 9.5V20.3C21 21.0161 20.7432 21.7028 20.2861 22.2092C19.829 22.7155 19.209 23 18.5625 23H10.4375C9.79103 23 9.17105 22.7155 8.71393 22.2092C8.25681 21.7028 8 21.0161 8 20.3V9.5C7.99991 8.94109 8.15642 8.39592 8.44792 7.93971C8.73941 7.4835 9.15154 7.13875 9.62744 6.953C9.66306 7.88055 10.0208 8.75699 10.6259 9.39931C11.2311 10.0416 12.0369 10.4001 12.875 10.4H16.125C16.9303 10.4001 17.707 10.069 18.3044 9.47085C18.9019 8.87273 19.2776 8.0502 19.3587 7.1627L19.3726 6.953ZM12.0706 16.7H12.0625C11.8554 16.7003 11.6562 16.7881 11.5056 16.9456C11.3551 17.103 11.2644 17.3183 11.2523 17.5473C11.2402 17.7763 11.3074 18.0017 11.4403 18.1776C11.5733 18.3536 11.7618 18.4666 11.9674 18.4937L12.0706 18.5C12.2861 18.5 12.4928 18.4052 12.6451 18.2364C12.7975 18.0676 12.8831 17.8387 12.8831 17.6C12.8831 17.3613 12.7975 17.1324 12.6451 16.9636C12.4928 16.7948 12.2861 16.7 12.0706 16.7ZM16.9375 16.7H15.3125C15.097 16.7 14.8903 16.7948 14.738 16.9636C14.5856 17.1324 14.5 17.3613 14.5 17.6C14.5 17.8387 14.5856 18.0676 14.738 18.2364C14.8903 18.4052 15.097 18.5 15.3125 18.5H16.9375C17.153 18.5 17.3597 18.4052 17.512 18.2364C17.6644 18.0676 17.75 17.8387 17.75 17.6C17.75 17.3613 17.6644 17.1324 17.512 16.9636C17.3597 16.7948 17.153 16.7 16.9375 16.7ZM12.0706 13.1H12.0625C11.8554 13.1003 11.6562 13.1881 11.5056 13.3456C11.3551 13.503 11.2644 13.7183 11.2523 13.9473C11.2402 14.1763 11.3074 14.4017 11.4403 14.5776C11.5733 14.7536 11.7618 14.8666 11.9674 14.8937L12.0706 14.9C12.2861 14.9 12.4928 14.8052 12.6451 14.6364C12.7975 14.4676 12.8831 14.2387 12.8831 14C12.8831 13.7613 12.7975 13.5324 12.6451 13.3636C12.4928 13.1948 12.2861 13.1 12.0706 13.1ZM16.9375 13.1H15.3125C15.097 13.1 14.8903 13.1948 14.738 13.3636C14.5856 13.5324 14.5 13.7613 14.5 14C14.5 14.2387 14.5856 14.4676 14.738 14.6364C14.8903 14.8052 15.097 14.9 15.3125 14.9H16.9375C17.153 14.9 17.3597 14.8052 17.512 14.6364C17.6644 14.4676 17.75 14.2387 17.75 14C17.75 13.7613 17.6644 13.5324 17.512 13.3636C17.3597 13.1948 17.153 13.1 16.9375 13.1ZM16.125 5C16.556 5 16.9693 5.18964 17.274 5.52721C17.5788 5.86477 17.75 6.32261 17.75 6.8C17.75 7.27739 17.5788 7.73523 17.274 8.07279C16.9693 8.41036 16.556 8.6 16.125 8.6H12.875C12.444 8.6 12.0307 8.41036 11.726 8.07279C11.4212 7.73523 11.25 7.27739 11.25 6.8C11.25 6.32261 11.4212 5.86477 11.726 5.52721C12.0307 5.18964 12.444 5 12.875 5H16.125Z" fill="#29252B"/>
</svg>
