<svg width="25" height="24" viewBox="0 0 25 24" fill="none" xmlns="http://www.w3.org/2000/svg">
<g clip-path="url(#clip0_519_16000)">
<path d="M16.2227 2C16.4057 2 16.5777 2.05 16.7247 2.135L16.7577 2.155C17.0377 2.332 17.2227 2.645 17.2227 3V4H18.2227C18.9879 3.99996 19.7242 4.29233 20.2809 4.81728C20.8377 5.34224 21.1728 6.06011 21.2177 6.824L21.2227 7V19C21.2227 19.7652 20.9303 20.5015 20.4054 21.0583C19.8804 21.615 19.1625 21.9501 18.3987 21.995L18.2227 22H6.22266C5.45745 22 4.72114 21.7077 4.1644 21.1827C3.60765 20.6578 3.27255 19.9399 3.22766 19.176L3.22266 19V7C3.22261 6.23479 3.51498 5.49849 4.03994 4.94174C4.5649 4.38499 5.28276 4.04989 6.04666 4.005L6.22266 4H7.22266V3C7.22265 2.82173 7.2703 2.64669 7.36067 2.49302C7.45104 2.33936 7.58085 2.21264 7.73666 2.126L7.82966 2.08L7.89566 2.055L7.99566 2.026L8.10266 2.007L8.22266 2C8.27799 2 8.33166 2.00433 8.38366 2.013L8.50566 2.042L8.54566 2.054L8.60566 2.077C8.93366 2.212 9.17366 2.517 9.21566 2.883L9.22266 3V4H15.2227V3C15.2227 2.73478 15.328 2.48043 15.5155 2.29289C15.7031 2.10536 15.9574 2 16.2227 2ZM19.2227 9H5.22266V18.625C5.22266 19.33 5.60866 19.911 6.10566 19.991L6.22266 20H18.2227C18.7357 20 19.1587 19.47 19.2157 18.785L19.2227 18.625V9Z" fill="#29252B"/>
<path d="M9.23957 12.9999C9.23957 13.2651 9.13421 13.5195 8.94668 13.707C8.75914 13.8946 8.50479 13.9999 8.23957 13.9999C8.10451 14.0063 7.96955 13.9852 7.84285 13.938C7.71615 13.8908 7.60033 13.8184 7.50237 13.7252C7.40442 13.632 7.32637 13.5199 7.27292 13.3957C7.21948 13.2715 7.19175 13.1377 7.19141 13.0025C7.19107 12.8673 7.21813 12.7334 7.27095 12.609C7.32378 12.4845 7.40127 12.372 7.49876 12.2783C7.59624 12.1846 7.7117 12.1117 7.83816 12.0638C7.96463 12.0159 8.09948 11.9942 8.23457 11.9999C8.79157 11.9999 9.23957 12.4479 9.23957 12.9999Z" fill="#29252B"/>
<path d="M13.2396 12.9999C13.2396 13.2651 13.1342 13.5195 12.9467 13.707C12.7591 13.8946 12.5048 13.9999 12.2396 13.9999C12.1045 14.0063 11.9696 13.9852 11.8428 13.938C11.7161 13.8908 11.6003 13.8184 11.5024 13.7252C11.4044 13.632 11.3264 13.5199 11.2729 13.3957C11.2195 13.2715 11.1917 13.1377 11.1914 13.0025C11.1911 12.8673 11.2181 12.7334 11.271 12.609C11.3238 12.4845 11.4013 12.372 11.4988 12.2783C11.5962 12.1846 11.7117 12.1117 11.8382 12.0638C11.9646 12.0159 12.0995 11.9942 12.2346 11.9999C12.7916 11.9999 13.2396 12.4479 13.2396 12.9999Z" fill="#29252B"/>
<path d="M17.2435 12.9999C17.2435 13.2651 17.1381 13.5195 16.9506 13.707C16.763 13.8946 16.5087 13.9999 16.2435 13.9999C16.1084 14.0063 15.9735 13.9852 15.8468 13.938C15.7201 13.8908 15.6042 13.8184 15.5063 13.7252C15.4083 13.632 15.3303 13.5199 15.2768 13.3957C15.2234 13.2715 15.1957 13.1377 15.1953 13.0025C15.195 12.8673 15.222 12.7334 15.2749 12.609C15.3277 12.4845 15.4052 12.372 15.5027 12.2783C15.6001 12.1846 15.7156 12.1117 15.8421 12.0638C15.9685 12.0159 16.1034 11.9942 16.2385 11.9999C16.7955 11.9999 17.2435 12.4479 17.2435 12.9999Z" fill="#29252B"/>
<path d="M12.2435 14.9999C12.5087 14.9999 12.763 15.1053 12.9506 15.2928C13.1381 15.4803 13.2435 15.7347 13.2435 15.9999C13.2435 16.2651 13.1381 16.5195 12.9506 16.707C12.763 16.8946 12.5087 16.9999 12.2435 16.9999C12.1084 17.0063 11.9735 16.9852 11.8468 16.938C11.7201 16.8908 11.6042 16.8184 11.5063 16.7252C11.4083 16.632 11.3303 16.5199 11.2768 16.3957C11.2234 16.2715 11.1957 16.1377 11.1953 16.0025C11.195 15.8673 11.222 15.7334 11.2749 15.609C11.3277 15.4845 11.4052 15.372 11.5027 15.2783C11.6001 15.1846 11.7156 15.1117 11.8421 15.0638C11.9685 15.0159 12.1034 14.9942 12.2385 14.9999H12.2435Z" fill="#29252B"/>
<path d="M9.23957 15.9999C9.23957 16.2651 9.13421 16.5195 8.94668 16.707C8.75914 16.8946 8.50479 16.9999 8.23957 16.9999C8.10451 17.0063 7.96955 16.9852 7.84285 16.938C7.71615 16.8908 7.60033 16.8184 7.50237 16.7252C7.40442 16.632 7.32637 16.5199 7.27292 16.3957C7.21948 16.2715 7.19175 16.1377 7.19141 16.0025C7.19107 15.8673 7.21813 15.7334 7.27095 15.609C7.32378 15.4845 7.40127 15.372 7.49876 15.2783C7.59624 15.1846 7.7117 15.1117 7.83816 15.0638C7.96463 15.0159 8.09948 14.9942 8.23457 14.9999C8.79157 14.9999 9.23957 15.4479 9.23957 15.9999Z" fill="#29252B"/>
</g>
<defs>
<clipPath id="clip0_519_16000">
<rect width="24" height="24" fill="white" transform="translate(0.222656)"/>
</clipPath>
</defs>
</svg>
