<svg width="24" height="25" viewBox="0 0 24 25" fill="none" xmlns="http://www.w3.org/2000/svg">
<g clip-path="url(#clip0_1252_14446)">
<path d="M19.9999 6.32101C20.2547 6.3213 20.4999 6.41889 20.6852 6.59386C20.8706 6.76883 20.9821 7.00797 20.997 7.26241C21.012 7.51685 20.9292 7.76739 20.7656 7.96285C20.602 8.1583 20.37 8.28391 20.1169 8.31401L19.9999 8.32101H19.9189L18.9999 19.321C18.9999 20.0862 18.7075 20.8225 18.1826 21.3793C17.6576 21.936 16.9398 22.2711 16.1759 22.316L15.9999 22.321H7.99987C6.40187 22.321 5.09587 21.072 5.00787 19.571L5.00287 19.404L4.07987 8.32101H3.99987C3.74499 8.32073 3.49984 8.22314 3.3145 8.04817C3.12916 7.8732 3.01763 7.63406 3.0027 7.37962C2.98776 7.12518 3.07054 6.87464 3.23413 6.67918C3.39772 6.48373 3.62977 6.35812 3.88287 6.32801L3.99987 6.32101H19.9999ZM10.5109 11.461C10.3013 11.3363 10.0535 11.2924 9.81388 11.3376C9.57428 11.3829 9.35946 11.5141 9.20982 11.7066C9.06018 11.8991 8.98603 12.1397 9.00133 12.383C9.01662 12.6264 9.1203 12.8557 9.29287 13.028L10.5849 14.321L9.29287 15.614L9.20987 15.708C9.05446 15.909 8.98138 16.1616 9.00547 16.4145C9.02956 16.6675 9.14902 16.9017 9.33959 17.0698C9.53016 17.2378 9.77754 17.327 10.0315 17.3192C10.2854 17.3115 10.5269 17.2074 10.7069 17.028L11.9999 15.736L13.2929 17.028L13.3869 17.111C13.5879 17.2664 13.8405 17.3395 14.0934 17.3154C14.3463 17.2913 14.5806 17.1719 14.7486 16.9813C14.9167 16.7907 15.0059 16.5433 14.9981 16.2894C14.9903 16.0354 14.8862 15.794 14.7069 15.614L13.4149 14.321L14.7069 13.028L14.7899 12.934C14.9453 12.733 15.0184 12.4804 14.9943 12.2275C14.9702 11.9746 14.8507 11.7403 14.6601 11.5723C14.4696 11.4042 14.2222 11.315 13.9683 11.3228C13.7143 11.3305 13.4728 11.4347 13.2929 11.614L11.9999 12.906L10.7069 11.614L10.6129 11.531L10.5109 11.461Z" fill="black"/>
<path d="M14 2.32101C14.5304 2.32101 15.0391 2.53173 15.4142 2.9068C15.7893 3.28187 16 3.79058 16 4.32101C15.9997 4.57589 15.9021 4.82105 15.7272 5.00638C15.5522 5.19172 15.313 5.30325 15.0586 5.31819C14.8042 5.33312 14.5536 5.25034 14.3582 5.08675C14.1627 4.92316 14.0371 4.69111 14.007 4.43801L14 4.32101H10L9.993 4.43801C9.9629 4.69111 9.83729 4.92316 9.64183 5.08675C9.44638 5.25034 9.19584 5.33312 8.94139 5.31819C8.68695 5.30325 8.44782 5.19172 8.27285 5.00638C8.09788 4.82105 8.00028 4.57589 8 4.32101C7.99984 3.81644 8.19041 3.33045 8.5335 2.96047C8.87659 2.59049 9.34685 2.36386 9.85 2.32601L10 2.32101H14Z" fill="black"/>
</g>
<defs>
<clipPath id="clip0_1252_14446">
<rect width="24" height="24" fill="white" transform="translate(0 0.321014)"/>
</clipPath>
</defs>
</svg>
