<svg width="28" height="28" viewBox="0 0 28 28" fill="none" xmlns="http://www.w3.org/2000/svg">
<path d="M19.2863 9.71959H18.4542C17.6238 9.7664 16.9122 9.13246 16.8631 8.30225V8.22909C16.8395 7.82867 16.6575 7.4541 16.3573 7.18814C16.057 6.92219 15.6632 6.78675 15.2628 6.81175H9.53861V6.51914C9.53861 6.14038 9.23157 5.83333 8.8528 5.83333C8.47404 5.83333 8.16699 6.14038 8.16699 6.51914V22.0642C8.16699 22.4429 8.47404 22.75 8.8528 22.75C9.23157 22.75 9.53861 22.4429 9.53861 22.0642V14.4928H10.6085C11.4388 14.446 12.1505 15.08 12.1996 15.9102V15.965C12.2486 16.7953 12.9603 17.4292 13.7906 17.3824H19.2771C20.1075 17.4292 20.8191 16.7953 20.8682 15.965V11.1186C20.8049 10.3018 20.1047 9.68259 19.2863 9.71959Z" fill="#29252B"/>
</svg>
