<svg width="44" height="20" viewBox="0 0 44 20" fill="none" xmlns="http://www.w3.org/2000/svg">
<path d="M13.7758 6.94192H13.1815C12.5884 6.97535 12.08 6.52254 12.045 5.92953V5.87728C12.0282 5.59126 11.8982 5.32371 11.6837 5.13374C11.4692 4.94377 11.1879 4.84703 10.902 4.86489H6.81323V4.65588C6.81323 4.38534 6.59391 4.16602 6.32336 4.16602C6.05282 4.16602 5.8335 4.38534 5.8335 4.65588V15.7595C5.8335 16.03 6.05282 16.2493 6.32336 16.2493C6.59391 16.2493 6.81323 16.03 6.81323 15.7595V10.3514H7.57742C8.17052 10.3179 8.67884 10.7708 8.7139 11.3638V11.403C8.74896 11.996 9.25728 12.4488 9.85039 12.4153H13.7693C14.3624 12.4488 14.8707 11.996 14.9058 11.403V7.94124C14.8606 7.35777 14.3605 6.91549 13.7758 6.94192Z" fill="#8F3FFF"/>
<path d="M30.2812 3.80859V8.18359H26.9043V9.37305H31.7168V10.7812H20.3691V9.37305H25.1543V8.18359H21.7773V3.80859H30.2812ZM23.4863 5.16211V6.81641H28.5723V5.16211H23.4863ZM30.3359 11.6973V15.7578H28.5996V13.0645H21.627V11.6973H30.3359ZM43.5774 12.9824V14.377H32.1888V12.9824H35.0188V10.6172H33.1321V9.20898H34.8001V5.70898H33.0774V4.31445H42.6204V5.70898H40.8704V9.20898H42.5657V10.6172H40.6927V12.9824H43.5774ZM36.5501 9.20898H39.1477V5.70898H36.5501V9.20898ZM36.7688 12.9824H38.9427V10.6172H36.7688V12.9824Z" fill="#8F3FFF"/>
</svg>
