<svg width="24" height="24" viewBox="0 0 24 24" fill="none" xmlns="http://www.w3.org/2000/svg">
<path d="M20.6426 12.2152C20.6426 11.6074 20.5838 10.9799 20.4858 10.3917H11.9961V13.8621H16.8585C16.6625 14.9797 16.0155 15.96 15.0547 16.5875L17.9565 18.8422C19.6623 17.2541 20.6426 14.9405 20.6426 12.2152Z" fill="#4280EF"/>
<path d="M11.9958 20.9997C14.427 20.9997 16.4661 20.1959 17.9562 18.8234L15.0544 16.5882C14.2505 17.1372 13.2114 17.4509 11.9958 17.4509C9.64296 17.4509 7.66269 15.8628 6.93724 13.7453L3.95703 16.0392C5.48635 19.0783 8.5842 20.9997 11.9958 20.9997Z" fill="#34A353"/>
<path d="M6.93604 13.7264C6.56351 12.6088 6.56351 11.3932 6.93604 10.2756L3.95582 7.96206C2.68139 10.5109 2.68139 13.5107 3.95582 16.04L6.93604 13.7264Z" fill="#F6B704"/>
<path d="M11.9958 6.5689C13.2702 6.54929 14.525 7.03946 15.4465 7.92176L18.015 5.33368C16.3877 3.80436 14.2309 2.98088 11.9958 3.00049C8.5842 3.00049 5.48635 4.92194 3.95703 7.96097L6.93724 10.2746C7.66269 8.13743 9.64296 6.5689 11.9958 6.5689Z" fill="#E54335"/>
</svg>
