<svg width="28" height="29" viewBox="0 0 28 29" fill="none" xmlns="http://www.w3.org/2000/svg">
<path fill-rule="evenodd" clip-rule="evenodd" d="M11.5215 6.81334C12.7534 5.91003 14.4292 5.91013 15.6611 6.81334L19.8809 9.92955C20.6937 10.5181 21.1771 11.4592 21.1826 12.4628V18.1044C21.1315 19.8565 19.7202 21.2519 17.9873 21.3006H9.20312C7.46737 21.2556 6.05107 19.8594 6 18.1044V12.4628C6.00556 11.4593 6.49008 10.5181 7.30273 9.92955L11.5215 6.81334ZM14.3438 17.9452H16.96V15.7508H14.3438V17.9452ZM10.2119 17.9452H12.8262V15.7508H10.2129L10.2119 15.7499V17.9452ZM14.3438 14.2333H16.96V12.0399H14.3438V14.2333ZM10.2119 14.2333H12.8262V12.0399H10.2119V14.2333Z" fill="#29252B"/>
</svg>
