<svg width="25" height="24" viewBox="0 0 25 24" fill="none" xmlns="http://www.w3.org/2000/svg">
<g clip-path="url(#clip0_519_16020)">
<path d="M18.2227 3C19.0183 3 19.7814 3.31607 20.344 3.87868C20.9066 4.44129 21.2227 5.20435 21.2227 6V8C21.2227 8.79565 20.9066 9.55871 20.344 10.1213C19.7814 10.6839 19.0183 11 18.2227 11H6.22266C5.42701 11 4.66395 10.6839 4.10134 10.1213C3.53873 9.55871 3.22266 8.79565 3.22266 8V6C3.22266 5.20435 3.53873 4.44129 4.10134 3.87868C4.66395 3.31607 5.42701 3 6.22266 3H18.2227Z" fill="#6F6A78"/>
<path d="M18.2227 13C19.0183 13 19.7814 13.3161 20.344 13.8787C20.9066 14.4413 21.2227 15.2044 21.2227 16V18C21.2227 18.7956 20.9066 19.5587 20.344 20.1213C19.7814 20.6839 19.0183 21 18.2227 21H6.22266C5.42701 21 4.66395 20.6839 4.10134 20.1213C3.53873 19.5587 3.22266 18.7956 3.22266 18V16C3.22266 15.2044 3.53873 14.4413 4.10134 13.8787C4.66395 13.3161 5.42701 13 6.22266 13H18.2227Z" fill="#6F6A78"/>
</g>
<defs>
<clipPath id="clip0_519_16020">
<rect width="24" height="24" fill="white" transform="translate(0.222656)"/>
</clipPath>
</defs>
</svg>
