<svg width="40" height="40" viewBox="0 0 40 40" fill="none" xmlns="http://www.w3.org/2000/svg">
<rect width="40" height="40" rx="12" fill="#8F3FFF"/>
<path d="M21.5146 9C27.802 9.00016 32.8994 14.0973 32.8994 20.3848C32.8993 26.6721 27.8019 31.7694 21.5146 31.7695H11.6591C11.5933 31.7695 11.5293 31.7603 11.4677 31.7461C11.2774 31.7588 11.0867 31.7686 10.8955 31.7686C9.76863 31.7686 8.65235 31.5464 7.61129 31.1152C6.6619 30.7218 6.89673 29.418 7.77828 28.8896C9.04744 28.129 10.0968 27.0394 10.8095 25.7393V12.6816C10.8095 10.6484 12.4579 9 14.4912 9H21.5146Z" fill="white"/>
<g filter="url(#filter0_dd_3140_1704)">
<path d="M20.293 17C20.293 16.4477 20.7407 16 21.293 16C21.8453 16 22.293 16.4477 22.293 17V19C22.293 19.5523 21.8453 20 21.293 20C20.7407 20 20.293 19.5523 20.293 19V17Z" fill="#8F3FFF"/>
</g>
<g filter="url(#filter1_dd_3140_1704)">
<path d="M25.293 17C25.293 16.4477 25.7407 16 26.293 16C26.8453 16 27.293 16.4477 27.293 17V19C27.293 19.5523 26.8453 20 26.293 20C25.7407 20 25.293 19.5523 25.293 19V17Z" fill="#8F3FFF"/>
</g>
<defs>
<filter id="filter0_dd_3140_1704" x="19.3314" y="15.0385" width="3.92308" height="5.92308" filterUnits="userSpaceOnUse" color-interpolation-filters="sRGB">
<feFlood flood-opacity="0" result="BackgroundImageFix"/>
<feColorMatrix in="SourceAlpha" type="matrix" values="0 0 0 0 0 0 0 0 0 0 0 0 0 0 0 0 0 0 127 0" result="hardAlpha"/>
<feOffset dx="-0.384615" dy="-0.384615"/>
<feGaussianBlur stdDeviation="0.288462"/>
<feComposite in2="hardAlpha" operator="out"/>
<feColorMatrix type="matrix" values="0 0 0 0 0.0392157 0 0 0 0 0.0431373 0 0 0 0 0.121569 0 0 0 0.2 0"/>
<feBlend mode="normal" in2="BackgroundImageFix" result="effect1_dropShadow_3140_1704"/>
<feColorMatrix in="SourceAlpha" type="matrix" values="0 0 0 0 0 0 0 0 0 0 0 0 0 0 0 0 0 0 127 0" result="hardAlpha"/>
<feOffset dx="0.384615" dy="0.384615"/>
<feGaussianBlur stdDeviation="0.288462"/>
<feComposite in2="hardAlpha" operator="out"/>
<feColorMatrix type="matrix" values="0 0 0 0 1 0 0 0 0 1 0 0 0 0 1 0 0 0 0.2 0"/>
<feBlend mode="normal" in2="effect1_dropShadow_3140_1704" result="effect2_dropShadow_3140_1704"/>
<feBlend mode="normal" in="SourceGraphic" in2="effect2_dropShadow_3140_1704" result="shape"/>
</filter>
<filter id="filter1_dd_3140_1704" x="24.3314" y="15.0385" width="3.92308" height="5.92308" filterUnits="userSpaceOnUse" color-interpolation-filters="sRGB">
<feFlood flood-opacity="0" result="BackgroundImageFix"/>
<feColorMatrix in="SourceAlpha" type="matrix" values="0 0 0 0 0 0 0 0 0 0 0 0 0 0 0 0 0 0 127 0" result="hardAlpha"/>
<feOffset dx="-0.384615" dy="-0.384615"/>
<feGaussianBlur stdDeviation="0.288462"/>
<feComposite in2="hardAlpha" operator="out"/>
<feColorMatrix type="matrix" values="0 0 0 0 0.0392157 0 0 0 0 0.0431373 0 0 0 0 0.121569 0 0 0 0.2 0"/>
<feBlend mode="normal" in2="BackgroundImageFix" result="effect1_dropShadow_3140_1704"/>
<feColorMatrix in="SourceAlpha" type="matrix" values="0 0 0 0 0 0 0 0 0 0 0 0 0 0 0 0 0 0 127 0" result="hardAlpha"/>
<feOffset dx="0.384615" dy="0.384615"/>
<feGaussianBlur stdDeviation="0.288462"/>
<feComposite in2="hardAlpha" operator="out"/>
<feColorMatrix type="matrix" values="0 0 0 0 1 0 0 0 0 1 0 0 0 0 1 0 0 0 0.2 0"/>
<feBlend mode="normal" in2="effect1_dropShadow_3140_1704" result="effect2_dropShadow_3140_1704"/>
<feBlend mode="normal" in="SourceGraphic" in2="effect2_dropShadow_3140_1704" result="shape"/>
</filter>
</defs>
</svg>
