<svg width="40" height="40" viewBox="0 0 40 40" fill="none" xmlns="http://www.w3.org/2000/svg">
<g clip-path="url(#clip0_3140_17518)">
<rect width="40" height="40" rx="20" fill="#D5D3DA"/>
<rect x="7.42969" y="29.1787" width="28.1835" height="27.4286" transform="rotate(-45 7.42969 29.1787)" fill="#BBB8C3"/>
<path d="M21.5516 7.58594C27.7639 7.58606 32.7997 12.6227 32.7997 18.835C32.7996 25.0472 27.7638 30.0829 21.5516 30.083H11.8143C11.7493 30.083 11.6857 30.0755 11.6249 30.0615C11.4375 30.074 11.2497 30.083 11.0614 30.083C9.94817 30.083 8.84577 29.8635 7.81726 29.4375C6.87911 29.0489 7.11045 27.7605 7.98132 27.2383C9.2342 26.4874 10.2703 25.412 10.9745 24.1289V11.2236C10.9746 9.21477 12.6033 7.58594 14.6122 7.58594H21.5516Z" fill="white"/>
<path d="M20.2148 15.9809C20.2148 15.3318 20.741 14.8057 21.3901 14.8057C22.0391 14.8057 22.5653 15.3318 22.5653 15.9809V16.9882C22.5653 17.6373 22.0391 18.1634 21.3901 18.1634C20.741 18.1634 20.2148 17.6373 20.2148 16.9882V15.9809Z" fill="#8F8B99"/>
<path d="M25.084 15.9809C25.084 15.3318 25.6101 14.8057 26.2592 14.8057C26.9083 14.8057 27.4344 15.3318 27.4344 15.9809V16.9882C27.4344 17.6373 26.9083 18.1634 26.2592 18.1634C25.6101 18.1634 25.084 17.6373 25.084 16.9882V15.9809Z" fill="#8F8B99"/>
</g>
<defs>
<clipPath id="clip0_3140_17518">
<rect width="40" height="40" rx="20" fill="white"/>
</clipPath>
</defs>
</svg>
