<svg width="25" height="24" viewBox="0 0 25 24" fill="none" xmlns="http://www.w3.org/2000/svg">
<g clip-path="url(#clip0_636_9976)">
<path d="M21.9163 4.15687C21.9163 4.15687 21.9163 4.16625 21.9163 4.17094L16.4601 22.1653C16.3775 22.4576 16.2075 22.7176 15.9729 22.9105C15.7383 23.1034 15.4503 23.2199 15.1476 23.2444C15.1045 23.2481 15.0613 23.25 15.0182 23.25C14.7345 23.2509 14.4565 23.1706 14.2169 23.0186C13.9774 22.8666 13.7864 22.6492 13.6663 22.3922L10.2538 15.3891C10.2197 15.3189 10.2083 15.2398 10.2212 15.1628C10.2342 15.0859 10.2708 15.0148 10.326 14.9597L15.756 9.52969C15.8907 9.38789 15.9647 9.19908 15.9622 9.00351C15.9597 8.80794 15.8809 8.62108 15.7426 8.48278C15.6043 8.34448 15.4175 8.26567 15.2219 8.26317C15.0263 8.26067 14.8375 8.33466 14.6957 8.46937L9.26289 13.8994C9.20773 13.9546 9.13672 13.9912 9.05975 14.0042C8.98279 14.0171 8.9037 14.0057 8.83352 13.9716L1.82383 10.56C1.54972 10.4285 1.32205 10.2168 1.17097 9.95298C1.01989 9.68915 0.952552 9.38565 0.977866 9.08269C1.00318 8.77972 1.11996 8.4916 1.31272 8.25651C1.50549 8.02141 1.76514 7.85044 2.05727 7.76625L20.0516 2.31H20.0657C20.3219 2.23802 20.5926 2.2355 20.8501 2.30269C21.1076 2.36988 21.3426 2.50437 21.531 2.69235C21.7194 2.88034 21.8543 3.11506 21.922 3.37242C21.9898 3.62978 21.9878 3.90053 21.9163 4.15687Z" fill="#29252B"/>
</g>
<defs>
<clipPath id="clip0_636_9976">
<rect width="24" height="24" fill="white" transform="translate(0.222656)"/>
</clipPath>
</defs>
</svg>
