<svg width="198" height="32" viewBox="0 0 198 32" fill="none" xmlns="http://www.w3.org/2000/svg">
<path d="M8.39438 7.28H2.75438C1.43438 7.28 0.274375 6 0.274375 4C0.274375 2.28 1.27438 0.559999 2.75438 0.559999H20.7944C22.3144 0.559999 23.2744 1.84 23.2744 3.96C23.2744 5.72 22.3144 7.28 20.7544 7.28H15.2744C15.3544 13.8 15.3544 22.88 15.2744 28.2C15.2744 29.96 13.7544 31.12 11.7144 31.04C9.71438 30.96 8.35438 29.8 8.35438 28.12C8.39438 22.76 8.51438 13.56 8.39438 7.28ZM33.505 0.559999C35.345 0.559999 36.705 2 37.025 2.56C39.265 6.52 44.265 20.2 46.225 26.8C46.665 28.6 45.625 30.44 43.945 30.88C41.505 31.52 40.025 30.12 39.545 28.6C38.105 23.92 34.385 11.72 33.545 10.04C33.145 10.88 32.025 14.28 30.865 18.08H33.745C35.225 18.08 36.025 19.84 36.025 21.48C36.025 22.88 35.505 24.8 33.705 24.8H28.745C28.305 26.28 27.865 27.64 27.585 28.6C27.145 30.12 25.705 31.52 23.385 30.92C21.225 30.4 20.465 28.64 20.945 26.8C22.905 20.2 27.865 6.52 30.185 2.56C30.465 2 31.785 0.559999 33.505 0.559999ZM56.9956 3.44C56.7956 5.72 56.3956 17.68 56.6356 22.6C56.6356 23.32 57.0356 23.84 57.7156 23.96C58.6756 24.16 59.8756 24.24 61.1556 24.24C63.4756 24.24 65.3956 23.96 66.8756 23.4C68.4356 22.8 70.6356 23.48 71.0756 25.76C71.4756 27.44 70.7956 28.92 69.5556 29.6C67.2356 30.84 63.6356 31.04 61.0356 31.04C58.2356 31.04 55.3556 30.6 53.2756 29.76C52.1156 29.28 50.5156 28.16 50.1556 26.24C49.5156 22.92 49.7956 5.64 50.1956 2.68C50.4356 1.12 52.3556 0.279998 54.1556 0.599998C56.2756 0.919999 57.0756 2.44 56.9956 3.44ZM92.4788 6.2L80.0788 19.48C80.1588 22.76 80.2788 25.8 80.4788 28C80.5988 29.72 79.0388 30.92 77.3188 31.04C75.3588 31.16 73.7188 30.28 73.5588 28.64C73.1188 24.2 72.7188 9.72 73.5988 2.76C73.7988 1.28 75.7588 0.359999 77.3988 0.559999C79.0388 0.759999 80.6788 1.88 80.4788 3.72C80.3188 5.32 80.1988 7.48 80.1188 9.92L87.6388 1.44C88.6388 0.279998 90.9187 0.359999 92.0788 1.52C93.5988 3.04 93.4788 5.12 92.4788 6.2ZM88.5988 18.4L94.2788 25.84C95.3188 27.2 94.6788 29.36 93.3988 30.36C91.9188 31.52 89.9588 31.36 89.0388 30.16L83.1188 22.36C82.1588 21.08 82.7588 19.04 84.1188 18.08C85.4388 17.12 87.5988 16.96 88.5988 18.4ZM102.496 7.28H96.8559C95.5359 7.28 94.3759 6 94.3759 4C94.3759 2.28 95.3759 0.559999 96.8559 0.559999H114.896C116.416 0.559999 117.376 1.84 117.376 3.96C117.376 5.72 116.416 7.28 114.856 7.28H109.376C109.456 13.8 109.456 22.88 109.376 28.2C109.376 29.96 107.856 31.12 105.816 31.04C103.816 30.96 102.456 29.8 102.456 28.12C102.496 22.76 102.616 13.56 102.496 7.28ZM142.948 15.88C142.948 24.32 138.668 31.44 130.028 31.44C121.548 31.44 117.188 24.12 117.188 15.84C117.188 7.56 121.108 0.199999 130.028 0.199999C139.068 0.199999 142.948 8.12 142.948 15.88ZM136.028 15.92C136.028 10.04 134.028 6.96 129.948 6.96C126.108 7 124.068 9.88 124.068 15.92C124.068 21.52 126.068 24.64 129.988 24.64C134.028 24.64 136.028 21.52 136.028 15.92ZM156.759 7.24H154.239C153.199 7.24 153.159 8.12 153.159 8.4C152.879 13.68 152.839 18.76 152.959 23.24C152.999 23.56 152.999 24.36 153.959 24.36H156.759C160.599 24.36 162.959 21.52 162.959 15.88C162.959 9.96 160.839 7.24 156.759 7.24ZM149.959 0.559999H156.839C166.279 0.559999 169.719 8.16 169.719 15.92C169.719 24.36 164.959 31.04 156.839 31.04H149.519C147.839 31.04 146.359 30.12 146.279 28.32C146.079 24.76 146.039 6.84 146.559 3.52C146.879 1.56 148.959 0.559999 149.959 0.559999ZM197.675 15.88C197.675 24.32 193.395 31.44 184.755 31.44C176.275 31.44 171.915 24.12 171.915 15.84C171.915 7.56 175.835 0.199999 184.755 0.199999C193.795 0.199999 197.675 8.12 197.675 15.88ZM190.755 15.92C190.755 10.04 188.755 6.96 184.675 6.96C180.835 7 178.795 9.88 178.795 15.92C178.795 21.52 180.795 24.64 184.715 24.64C188.755 24.64 190.755 21.52 190.755 15.92Z" fill="white"/>
</svg>
